<?xml version="1.0" encoding="UTF-8"?>
<svg xmlns="http://www.w3.org/2000/svg" id="Layer_1" viewBox="0 80 2500 840">
  <defs>
    <style>.cls-1{fill:#2b2b2b;}.cls-2{fill:#f7703c;}.cls-3{fill:#a296fb;}.cls-4{fill:#47257b;}.cls-5{fill:#808081;}.cls-6{fill:none;}.cls-7{fill:#d3d5d8;}</style>
  </defs>
  <title>ElementAI-Website-Illustrations-v2</title>
  <polygon class="cls-1" points="437.5 753.69 317.32 681.39 318.35 679.68 436.61 750.82 484.09 646.57 485.91 647.4 437.5 753.69"></polygon>
  <polygon class="cls-1" points="1863.82 579.38 1862.33 578.04 1992.03 434.3 2042.16 494.78 2040.62 496.06 1991.97 437.36 1863.82 579.38"></polygon>
  <rect class="cls-1" x="1821.75" y="165.82" width="2" height="169.96" transform="translate(-10.7 404.96) rotate(-12.64)"></rect>
  <rect class="cls-1" x="1448.32" y="659.42" width="2" height="93.4" transform="matrix(0.8, -0.6, 0.6, 0.8, -134.37, 1007.9)"></rect>
  <rect class="cls-1" x="441.36" y="295.9" width="121.72" height="2" transform="translate(1.5 596.33) rotate(-61.47)"></rect>
  <polygon class="cls-1" points="1250.71 613.61 1249.29 612.2 1458.21 403.28 1459.82 404.42 1391.42 544.95 1389.63 544.07 1455.41 408.91 1250.71 613.61"></polygon>
  <polygon class="cls-1" points="1458.21 404.69 1249.29 195.77 1250.71 194.36 1455.41 399.06 1389.63 263.9 1391.42 263.02 1459.82 403.55 1458.21 404.69"></polygon>
  <rect class="cls-1" x="991.42" y="373.01" width="376.64" height="2" transform="translate(392.6 1329.04) rotate(-68.09)"></rect>
  <rect class="cls-1" x="1133.07" y="437.18" width="376.64" height="2" transform="translate(421.87 1500.7) rotate(-68.09)"></rect>
  <rect class="cls-1" x="1178.74" y="249.86" width="2" height="376.64" transform="translate(-78.3 471.8) rotate(-21.91)"></rect>
  <rect class="cls-1" x="1242.12" y="577.71" width="156.29" height="2" transform="translate(-120.13 635.81) rotate(-25.94)"></rect>
  <rect class="cls-1" x="1319.26" y="151.12" width="2" height="156.29" transform="translate(536.33 1316.05) rotate(-64.05)"></rect>
  <path class="cls-2" d="M1083.71,559.92l22.67-6.85a12.28,12.28,0,0,1,15.3,8.2l1,3.32a12.28,12.28,0,0,1-8.2,15.29l-23.11,7Z"></path>
  <rect class="cls-1" x="1389.53" y="263.46" width="2" height="281.05"></rect>
  <polyline class="cls-2" points="966.07 505.75 976.69 524.11 957.7 528.93"></polyline>
  <path class="cls-2" d="M967,514.45c-.2,1.7-7.92,61.08-7.92,61.08l-29.91-6.88,8.77-52.26.8-5.18a14.39,14.39,0,0,1,12.5-12.41c6.91-.87,11.29,1.08,13.67,4.58a10.47,10.47,0,0,1,1.15,2.23A18.67,18.67,0,0,1,967,514.45Z"></path>
  <path class="cls-1" d="M966,505.61a37.13,37.13,0,0,1-21.66,10.56,36,36,0,0,1-6.46.22l.8-5.18a14.39,14.39,0,0,1,12.5-12.41c6.91-.87,11.29,1.08,13.67,4.58A10.47,10.47,0,0,1,966,505.61Z"></path>
  <circle class="cls-2" cx="1679.23" cy="301.64" r="11.82"></circle>
  <polyline class="cls-1" points="1640.51 307.75 1623.21 320.03 1638.47 332.31"></polyline>
  <path class="cls-1" d="M1636.08,315.29c-.52,1.63-18.22,58.84-18.22,58.84l30.06,6.19,13.77-51.17,1.43-5a14.38,14.38,0,0,0-6.19-16.48c-5.93-3.67-10.73-3.72-14.35-1.52a10.15,10.15,0,0,0-2,1.54A18.75,18.75,0,0,0,1636.08,315.29Z"></path>
  <path class="cls-2" d="M1640.61,307.64a37.1,37.1,0,0,0,15.3,18.61,34.72,34.72,0,0,0,5.78,2.9l1.43-5a14.38,14.38,0,0,0-6.19-16.48c-5.93-3.67-10.73-3.72-14.35-1.52A10.15,10.15,0,0,0,1640.61,307.64Z"></path>
  <path class="cls-1" d="M1530.87,281l-24.75,13.09-20.27-38.42a12.22,12.22,0,0,1,5.1-16.51l3.15-1.66a12.22,12.22,0,0,1,16.51,5.1Z"></path>
  <path class="cls-3" d="M1625.58,369.65l-4.84,27.58L1602.36,394a100,100,0,0,1-70.66-51.47l-25.58-48.47L1530.87,281l25.59,48.49a71.8,71.8,0,0,0,50.74,37Z"></path>
  <path class="cls-4" d="M1654.07,440.23s15.4,11.94,20.56,18.51c9.24,11.75,11.24,21.42,11.88,48.42,1,41.84,33.68,340.06,33.68,340.06l-39.07,7.8L1636.9,485.49a2.35,2.35,0,0,0-4.62-.5l-5.44,388-36.7-14.56-6-418.23Z"></path>
  <path class="cls-3" d="M1659,446.43l-74.94-6.2-11.21-25.12a34.67,34.67,0,0,1,1.49-31.2l6.57-11.6a20.88,20.88,0,0,1,18.72-6.93l69.1,10a15.11,15.11,0,0,1,10.77,22.76Z"></path>
  <path class="cls-2" d="M1721.45,855l-53.12,11.06a35.24,35.24,0,0,1-7.24.75l-10.39,0-1,6.58h10.46a52.35,52.35,0,0,0,10.74-1.11l51.55-10.72Z"></path>
  <polyline class="cls-2" points="1626.86 873.02 1548.21 873.02 1550.24 866.37 1624.67 866.37"></polyline>
  <path class="cls-2" d="M1722.45,861.6l-2.26-14.38-39.07,7.8s2.38,7.48-9.39,10.35"></path>
  <path class="cls-2" d="M1626.84,873l0-14.56h-36.74s-2,9.13-12.57,7.9"></path>
  <path class="cls-5" d="M890.54,653.06c-.74-9.33-1-14.15-1-14.15l198.38-.94c24.91,0,41.53,21.22,39.57,46l-2,182.52-46.26,0,.7-181.23-157.16,0C905,685.23,892.08,672.35,890.54,653.06Z"></path>
  <path class="cls-5" d="M974,640.64l15-1.72,21.68,197.43a33.51,33.51,0,0,1-33.3,37.31H779.13L808,831.21l150.42.2-16.1-155C940.26,658.79,956.39,642.67,974,640.64Z"></path>
  <polyline class="cls-3" points="774.85 866.34 800.11 831.13 814.33 831.21 785.51 873.66 774.85 873.66"></polyline>
  <path class="cls-1" d="M926.85,561.88l46.07-2.74A20.82,20.82,0,0,1,995,579.92v59H889.5l-2.06-32.46A42,42,0,0,1,926.85,561.88Z"></path>
  <polygon class="cls-3" points="1079.01 866.5 1159.16 866.53 1160.34 873.41 1079 873.38 1079.01 866.5"></polygon>
  <rect class="cls-3" x="750.1" y="866.54" width="29.03" height="7.12" transform="translate(1529.23 1740.19) rotate(-180)"></rect>
  <path class="cls-3" d="M1079,873.38l.07-13.24h46.49s-.13,6.4,10.27,6.36"></path>
  <rect class="cls-1" x="1109.47" y="543.51" width="281.05" height="2"></rect>
  <rect class="cls-1" x="1109.47" y="262.46" width="281.05" height="2"></rect>
  <rect class="cls-1" x="1249" y="205.25" width="2" height="397.47" transform="translate(80.46 1002.21) rotate(-45)"></rect>
  <rect class="cls-1" x="1249" y="195.06" width="2" height="417.84"></rect>
  <rect class="cls-1" x="1178.74" y="500.57" width="2" height="156.29" transform="translate(143.09 1386.21) rotate(-64.05)"></rect>
  <rect class="cls-1" x="1101.59" y="228.26" width="156.29" height="2" transform="translate(18.57 539.14) rotate(-25.94)"></rect>
  <circle class="cls-3" cx="1390.53" cy="263.46" r="21.61"></circle>
  <circle class="cls-3" cx="1109.47" cy="263.46" r="21.61"></circle>
  <circle class="cls-3" cx="1390.53" cy="544.51" r="21.61"></circle>
  <circle class="cls-3" cx="1250" cy="195.06" r="21.61"></circle>
  <circle class="cls-3" cx="1250" cy="612.91" r="21.61"></circle>
  <circle class="cls-3" cx="1109.91" cy="544.66" r="21.61"></circle>
  <path class="cls-1" d="M977.52,617.25l-1.66-28,8.26-.49a149.3,149.3,0,0,0,40.54-8.15l59.2-20.78,9.27,26.42-59.2,20.78a177.49,177.49,0,0,1-48.15,9.68Z"></path>
  <circle class="cls-2" cx="1675.17" cy="431.76" r="27.35"></circle>
  <path class="cls-1" d="M1708.11,475.24a54.81,54.81,0,0,1-69-1.9,13.05,13.05,0,0,1,1.77-21l1.69-1a13.21,13.21,0,0,1,15.26,1.24,26.88,26.88,0,0,0,34-.08Z"></path>
  <path class="cls-3" d="M1729.09,439.58a54.62,54.62,0,0,1-21,35.66l-16.23-22.82a27,27,0,0,0,2.66-2.48,25.78,25.78,0,0,0,5.68-9.51,26.85,26.85,0,0,0-21.54-35.28l-23.61-3.43,4-27.71,22.73,3.3a56,56,0,0,1,37.26,22A54.47,54.47,0,0,1,1729.09,439.58Z"></path>
  <line class="cls-6" x1="1691.88" y1="452.42" x2="1690.58" y2="450.59"></line>
  <circle class="cls-4" cx="531.3" cy="243.44" r="8.71"></circle>
  <circle class="cls-4" cx="1477.27" cy="743.54" r="8.71"></circle>
  <circle class="cls-4" cx="2041.39" cy="495.42" r="8.71"></circle>
  <path class="cls-2" d="M1071.49,521.64l22-8.67a12.27,12.27,0,0,1,15.91,6.92l1.27,3.22a12.27,12.27,0,0,1-6.93,15.91l-22.45,8.84Z"></path>
  <path class="cls-1" d="M926.89,590l-3.22-27.81,29.24-3.39a233.83,233.83,0,0,0,55.35-13.38l63.52-23.88,9.85,26.21-63.52,23.88a261.87,261.87,0,0,1-62,15Z"></path>
  <path class="cls-1" d="M1799.9,691.69l-1.52-1.3,8.63-10.08a5.1,5.1,0,0,1,7.78,0l5.49,6.42a3.13,3.13,0,0,0,4.75,0l5.49-6.42a5.11,5.11,0,0,1,7.79,0l5.49,6.42a3.13,3.13,0,0,0,4.75,0l5.49-6.42a5.11,5.11,0,0,1,7.79,0l5.49,6.42a3.13,3.13,0,0,0,4.75,0l5.49-6.42a5.11,5.11,0,0,1,7.79,0l5.49,6.42a3.13,3.13,0,0,0,4.75,0l5.49-6.42a5.11,5.11,0,0,1,7.79,0l5.49,6.42a3.13,3.13,0,0,0,4.75,0l7.14-8.35,1.52,1.3-7.14,8.35a5.13,5.13,0,0,1-7.79,0l-5.49-6.42a3.11,3.11,0,0,0-4.75,0l-5.49,6.42a5.13,5.13,0,0,1-7.79,0l-5.49-6.42a3.11,3.11,0,0,0-4.75,0l-5.49,6.42a5.13,5.13,0,0,1-7.79,0l-5.49-6.42a3.11,3.11,0,0,0-4.75,0l-5.49,6.42a5.13,5.13,0,0,1-7.79,0l-5.49-6.42a3.11,3.11,0,0,0-4.75,0l-5.49,6.42a5.13,5.13,0,0,1-7.79,0l-5.49-6.42a3.1,3.1,0,0,0-4.74,0Z"></path>
  <path class="cls-1" d="M847.24,383.84l-1.52-1.3,8.62-10.09a5.13,5.13,0,0,1,7.79,0l5.49,6.42a3.13,3.13,0,0,0,4.75,0l5.49-6.42a5.13,5.13,0,0,1,7.79,0l5.49,6.42a3.13,3.13,0,0,0,4.75,0l5.49-6.42a5.13,5.13,0,0,1,7.79,0l5.49,6.42a3.13,3.13,0,0,0,4.75,0l5.49-6.42a5.13,5.13,0,0,1,7.79,0l5.49,6.42a3.13,3.13,0,0,0,4.75,0l5.49-6.42a5.1,5.1,0,0,1,3.89-1.79h0a5.1,5.1,0,0,1,3.89,1.79l8.31,10.1L963,383.82l-8.3-10.08a3.1,3.1,0,0,0-2.36-1.08h0a3.12,3.12,0,0,0-2.37,1.09l-5.49,6.42a5.13,5.13,0,0,1-7.79,0l-5.49-6.42a3.13,3.13,0,0,0-4.75,0l-5.49,6.42a5.13,5.13,0,0,1-7.79,0l-5.49-6.42a3.13,3.13,0,0,0-4.75,0l-5.49,6.42a5.13,5.13,0,0,1-7.79,0l-5.49-6.42a3.13,3.13,0,0,0-4.75,0l-5.49,6.42a5.13,5.13,0,0,1-7.79,0l-5.49-6.42a3.13,3.13,0,0,0-4.75,0Z"></path>
  <path class="cls-1" d="M696.14,775.3a5.1,5.1,0,0,1-3.89-1.79l-5.49-6.42a3.13,3.13,0,0,0-4.75,0l-5.49,6.42a5.13,5.13,0,0,1-7.79,0l-5.49-6.42a3.13,3.13,0,0,0-4.75,0L653,773.51a5.1,5.1,0,0,1-3.89,1.79h0a5.13,5.13,0,0,1-3.9-1.79l-5.49-6.42,1.52-1.3,5.49,6.42a3.11,3.11,0,0,0,2.38,1.09h0a3.09,3.09,0,0,0,2.37-1.09l5.49-6.42a5.13,5.13,0,0,1,7.79,0l5.49,6.42a3.13,3.13,0,0,0,4.75,0l5.49-6.42a5.13,5.13,0,0,1,7.79,0l5.49,6.42a3.13,3.13,0,0,0,4.75,0l5.49-6.42a5.13,5.13,0,0,1,7.79,0l5.49,6.42-1.52,1.3-5.49-6.42a3.13,3.13,0,0,0-4.75,0L700,773.51A5.13,5.13,0,0,1,696.14,775.3Z"></path>
  <path class="cls-1" d="M2031.37,305.18a5.11,5.11,0,0,1-3.89-1.8L2022,297a3.1,3.1,0,0,0-4.74,0l-5.49,6.41a5.11,5.11,0,0,1-7.79,0l-5.49-6.41a3.11,3.11,0,0,0-4.75,0l-5.49,6.41a5.11,5.11,0,0,1-7.79,0L1975,297l1.52-1.3,5.49,6.41a3.11,3.11,0,0,0,4.75,0l5.49-6.41a5.11,5.11,0,0,1,7.79,0l5.49,6.41a3.11,3.11,0,0,0,4.75,0l5.49-6.41a5.1,5.1,0,0,1,7.78,0l5.5,6.41a3.1,3.1,0,0,0,4.74,0l5.49-6.41a5.11,5.11,0,0,1,7.79,0l5.49,6.41-1.52,1.3L2045.5,297a3.11,3.11,0,0,0-4.75,0l-5.49,6.41A5.11,5.11,0,0,1,2031.37,305.18Z"></path>
  <circle class="cls-4" cx="936.56" cy="191.56" r="36.56"></circle>
  <circle class="cls-4" cx="1863.07" cy="578.71" r="36.56"></circle>
  <circle class="cls-1" cx="867.56" cy="453.58" r="27.55"></circle>
  <circle class="cls-2" cx="317.84" cy="680.53" r="27.55"></circle>
  <circle class="cls-2" cx="824.75" cy="259.24" r="21.73"></circle>
  <circle class="cls-3" cx="1450.72" cy="191.56" r="21.73"></circle>
  <circle class="cls-2" cx="1293.34" cy="765" r="21.73"></circle>
  <circle class="cls-5" cx="1841.34" cy="333.72" r="21.73"></circle>
  <circle class="cls-3" cx="1992" cy="435.83" r="21.73"></circle>
  <circle class="cls-5" cx="2334.51" cy="542.15" r="21.73"></circle>
  <circle class="cls-2" cx="2156.47" cy="355.45" r="21.73"></circle>
  <circle class="cls-2" cx="2013.73" cy="792.61" r="21.73"></circle>
  <circle class="cls-1" cx="428.75" cy="155" r="21.73"></circle>
  <circle class="cls-5" cx="485" cy="646.98" r="21.73"></circle>
  <circle class="cls-1" cx="437.06" cy="752.25" r="21.73"></circle>
  <circle class="cls-3" cx="145" cy="405.8" r="21.73"></circle>
  <circle class="cls-7" cx="448.18" cy="402.31" r="78.82"></circle>
  <circle class="cls-2" cx="1804.15" cy="167.88" r="83.96"></circle>
  <path class="cls-3" d="M2138.45,228.22a48,48,0,1,1,.48-6.77Z"></path>
  <circle class="cls-5" cx="1421.36" cy="668.71" r="48"></circle>
  <circle class="cls-4" cx="669.62" cy="586.85" r="48"></circle>
  <rect class="cls-1" x="2076.67" y="594.36" width="124.53" height="124.53" transform="translate(327.69 -657) rotate(18.89)"></rect>
  <rect class="cls-3" x="614.45" y="295.5" width="87.21" height="87.21" transform="translate(-81.39 374.46) rotate(-30)"></rect>
  <rect class="cls-1" x="600.35" y="183.15" width="111.5" height="2"></rect>
  <rect class="cls-1" x="407.52" y="528.14" width="55.75" height="2"></rect>
  <rect class="cls-1" x="786.46" y="537.85" width="55.75" height="2"></rect>
  <rect class="cls-1" x="1168.29" y="684.04" width="55.75" height="2"></rect>
  <rect class="cls-1" x="1813.47" y="439.23" width="55.75" height="2"></rect>
  <rect class="cls-1" x="2150.33" y="449.59" width="55.75" height="2"></rect>
  <rect class="cls-1" x="200.56" y="599.64" width="111.5" height="2"></rect>
  <polygon class="cls-7" points="986 349.28 1060.74 310.18 1057.16 390.55 986 349.28"></polygon>
</svg>
